<?xml version="1.0" standalone="no"?>
<!DOCTYPE svg PUBLIC "-//W3C//DTD SVG 20010904//EN"
 "http://www.w3.org/TR/2001/REC-SVG-20010904/DTD/svg10.dtd">
<svg version="1.0" xmlns="http://www.w3.org/2000/svg"
 width="1801.000000pt" height="980.000000pt" viewBox="0 0 1801.000000 980.000000"
 preserveAspectRatio="xMidYMid meet">

<g transform="translate(0.000000,980.000000) scale(0.100000,-0.100000)"
fill="#000000" stroke="none">
<path d="M0 7170 l0 -2630 9005 0 9005 0 0 380 0 380 -5330 0 -5330 0 0 370 0
370 5330 0 5330 0 0 380 0 380 -5330 0 -5330 0 0 380 0 380 5330 0 5330 0 0
380 0 380 -5330 -2 -5330 -3 0 365 0 365 5330 -3 5330 -2 0 380 0 380 -9005 0
-9005 0 0 -2630z m680 2273 l38 -98 101 -3 c55 -1 101 -5 101 -7 0 -3 -32 -35
-70 -72 l-70 -68 15 -85 c21 -116 20 -126 -4 -109 -11 8 -51 36 -89 63 l-70
48 -90 -60 c-49 -34 -92 -59 -94 -56 -3 2 4 47 15 100 l19 96 -73 74 -73 74
101 0 101 0 37 88 c46 107 55 125 62 119 2 -3 22 -49 43 -104z m1228 -3 l38
-95 102 -3 c56 -1 102 -5 102 -7 0 -3 -32 -35 -71 -72 l-70 -68 16 -98 c10
-54 15 -100 13 -103 -3 -2 -32 15 -64 38 -32 24 -71 51 -87 61 l-27 17 -89
-59 c-49 -33 -91 -58 -93 -55 -3 2 4 48 14 101 l20 96 -73 73 -73 74 101 0
c93 0 102 2 108 20 14 46 88 194 92 185 2 -5 20 -53 41 -105z m1207 1 l38
-101 99 0 c54 0 98 -3 98 -7 0 -4 -30 -38 -67 -75 l-67 -68 17 -97 c9 -53 15
-99 12 -101 -2 -2 -43 24 -90 58 l-87 61 -92 -60 c-50 -33 -92 -57 -94 -53 -1
4 7 51 17 102 l20 95 -69 66 c-39 36 -70 68 -70 72 0 3 43 8 96 9 l97 3 45
102 c25 56 48 100 52 98 3 -2 24 -49 45 -104z m1212 -1 l38 -95 98 -3 c53 -1
97 -6 97 -10 0 -3 -30 -36 -66 -73 l-66 -66 11 -69 c7 -38 14 -81 17 -96 9
-41 -10 -36 -98 28 l-78 56 -89 -61 c-50 -33 -92 -58 -94 -53 -3 4 3 50 14
102 l18 95 -72 73 -71 72 99 0 100 1 45 104 c25 57 48 101 52 97 4 -4 24 -50
45 -102z m2448 -2 l39 -98 98 0 c54 0 98 -4 98 -8 0 -5 -31 -38 -68 -75 l-69
-66 14 -78 c7 -43 15 -84 18 -91 12 -32 -10 -28 -68 12 -124 86 -101 84 -202
16 -48 -33 -89 -59 -92 -57 -2 2 5 49 14 105 l17 102 -67 61 c-37 34 -67 65
-67 70 0 4 43 10 96 11 l97 3 45 103 c25 56 49 99 52 95 4 -5 24 -52 45 -105z
m-1220 2 l37 -100 99 0 c55 0 99 -3 99 -7 0 -4 -30 -38 -67 -75 l-66 -67 15
-93 c9 -51 13 -96 9 -100 -3 -3 -44 21 -90 54 l-83 59 -92 -60 c-50 -33 -92
-57 -93 -53 -2 4 6 50 16 102 l19 95 -69 65 c-38 36 -69 68 -69 73 0 4 43 7
95 7 l96 0 35 78 c20 42 40 87 45 100 5 12 12 22 17 22 5 0 26 -45 47 -100z
m-4262 -510 l38 -100 100 0 c54 0 99 -4 99 -8 0 -4 -29 -37 -65 -72 -72 -72
-72 -71 -51 -190 8 -41 12 -77 11 -78 -2 -2 -39 21 -82 50 -43 30 -83 57 -89
61 -6 3 -51 -21 -100 -54 -54 -35 -90 -54 -91 -47 -2 7 5 52 15 100 l18 87
-68 68 c-37 37 -68 71 -68 75 0 5 43 8 96 8 l95 0 25 58 c14 31 34 76 44 100
10 23 23 42 27 42 4 0 25 -45 46 -100z m1217 -1 l36 -94 102 -3 c56 -1 102 -6
102 -10 0 -4 -32 -38 -70 -77 -42 -42 -68 -75 -66 -85 10 -33 29 -171 24 -175
-2 -2 -43 22 -89 55 l-85 59 -89 -59 c-49 -33 -91 -57 -94 -55 -2 3 4 48 14
101 l18 96 -67 67 c-36 36 -66 70 -66 74 0 4 43 7 95 7 l95 0 15 38 c44 107
71 161 80 158 5 -1 26 -45 45 -97z m1190 58 c0 -4 14 -42 31 -83 l31 -74 99 0
c54 0 99 -4 99 -9 0 -4 -29 -36 -65 -70 -72 -67 -73 -71 -54 -177 17 -98 13
-102 -56 -51 -119 86 -98 85 -200 17 -49 -33 -91 -57 -93 -55 -2 2 4 47 14
100 l18 96 -67 67 c-37 37 -67 71 -67 75 0 4 43 7 96 7 l95 0 16 38 c8 20 29
66 45 102 27 61 30 64 44 46 8 -11 14 -24 14 -29z m1237 -54 l39 -98 102 -3
c56 -1 102 -4 102 -6 0 -2 -32 -35 -71 -73 l-70 -68 16 -98 c10 -54 14 -101
11 -104 -3 -4 -23 7 -44 23 -20 17 -58 45 -84 63 l-48 32 -87 -60 c-48 -33
-90 -58 -94 -56 -3 3 2 48 13 102 l20 97 -71 69 c-39 38 -71 71 -71 73 0 2 44
4 98 4 l99 0 43 100 c24 55 46 100 50 100 4 0 25 -44 47 -97z m1226 -3 l38
-100 100 0 c54 0 99 -3 99 -7 0 -4 -30 -38 -67 -75 l-67 -68 17 -97 c9 -53 14
-99 12 -101 -2 -2 -41 21 -86 52 -45 32 -85 58 -89 59 -3 1 -46 -24 -94 -56
-49 -32 -91 -56 -93 -53 -3 2 4 47 15 99 l19 96 -69 67 c-37 38 -68 72 -68 76
0 5 43 8 95 8 l96 0 35 78 c20 42 40 87 45 100 5 12 12 22 16 22 5 0 25 -45
46 -100z m-5485 -535 l40 -100 101 -3 c56 -1 101 -5 101 -7 0 -3 -32 -35 -70
-72 l-70 -68 15 -89 c9 -48 15 -95 13 -103 -2 -10 -28 3 -87 46 -96 68 -81 69
-201 -13 -36 -24 -68 -42 -71 -40 -4 2 3 47 14 99 l21 96 -74 74 -74 75 101 0
101 0 20 48 c53 121 73 164 77 161 2 -2 21 -49 43 -104z m1371 -103 c55 -1
101 -5 101 -7 0 -3 -32 -35 -71 -72 l-71 -68 17 -98 c9 -54 15 -101 12 -103
-3 -3 -43 22 -90 56 l-86 61 -89 -60 c-49 -33 -92 -58 -94 -56 -2 3 4 48 15
102 l19 97 -72 70 -73 71 102 3 c55 1 101 7 101 11 0 5 21 53 46 107 l46 98
43 -105 43 -104 101 -3z m1066 98 l39 -100 105 0 105 0 -73 -74 -74 -75 15
-93 c9 -51 13 -96 9 -100 -3 -3 -44 21 -90 54 l-84 60 -90 -61 c-49 -34 -92
-60 -94 -57 -2 2 5 48 16 102 l20 99 -69 66 c-39 37 -70 70 -70 73 0 3 43 6
95 6 l95 0 33 73 c18 39 39 87 46 104 7 18 17 31 20 28 4 -2 25 -49 46 -105z
m1191 53 c9 -27 27 -72 40 -100 l23 -53 95 0 c53 0 96 -3 96 -7 0 -4 -30 -38
-66 -74 l-66 -67 11 -63 c20 -118 22 -139 16 -139 -4 0 -45 28 -91 61 l-84 61
-91 -61 c-50 -34 -93 -60 -95 -58 -3 2 5 49 15 103 l20 99 -72 73 -71 72 98 0
98 0 46 100 c25 55 49 100 53 100 4 0 15 -21 25 -47z m1249 -53 l40 -100 97 0
c54 0 98 -3 98 -7 0 -4 -30 -38 -66 -74 l-67 -67 15 -96 c8 -53 12 -98 10
-101 -3 -2 -39 19 -81 49 -42 29 -81 56 -87 59 -6 4 -51 -21 -99 -54 -48 -33
-90 -58 -92 -55 -3 2 5 49 16 103 l20 98 -69 63 c-39 35 -70 68 -70 73 0 5 43
9 96 9 l95 0 26 58 c14 31 34 76 44 100 10 23 22 42 26 42 4 0 26 -45 48 -100z
m1219 0 l38 -100 99 0 c55 0 99 -4 99 -8 0 -5 -31 -38 -68 -75 l-69 -66 17
-95 c10 -53 15 -98 12 -100 -3 -3 -39 18 -81 48 -42 29 -81 56 -87 59 -6 3
-50 -21 -99 -54 -48 -33 -89 -58 -92 -56 -2 3 4 49 13 103 l17 99 -66 64 c-37
35 -67 68 -67 73 0 4 43 8 96 8 l95 0 26 58 c14 31 34 76 44 100 10 23 22 42
26 42 4 0 25 -45 47 -100z m-5481 -510 l38 -100 100 0 c54 0 99 -3 99 -7 0 -4
-30 -38 -67 -75 l-67 -68 12 -85 c7 -46 15 -92 18 -100 11 -27 -13 -16 -97 44
l-83 59 -89 -60 c-49 -33 -90 -58 -92 -56 -3 2 3 48 12 102 l16 97 -66 67
c-37 37 -67 71 -67 75 0 4 43 7 96 7 l95 0 26 58 c14 31 34 76 44 100 10 23
22 42 26 42 4 0 25 -45 46 -100z m1214 0 l38 -100 103 0 c56 0 102 -4 102 -9
0 -4 -24 -31 -52 -58 -96 -91 -90 -77 -72 -182 9 -51 13 -95 11 -98 -3 -3 -44
22 -90 55 l-85 60 -88 -59 c-49 -32 -92 -59 -95 -59 -3 0 3 46 14 102 l19 102
-70 67 c-39 37 -68 70 -65 73 4 3 48 6 98 6 l92 0 42 90 c22 50 41 95 41 100
0 6 4 10 9 10 5 0 26 -45 48 -100z m1216 -5 l35 -90 101 -3 c56 -1 101 -6 101
-11 0 -4 -31 -38 -69 -74 l-68 -66 14 -82 c22 -130 22 -130 -77 -61 l-85 59
-88 -59 c-49 -33 -91 -57 -94 -54 -3 3 3 48 13 101 l18 96 -67 67 c-37 37 -67
71 -67 75 0 4 43 7 95 7 l96 0 18 43 c58 133 72 160 80 151 5 -5 24 -49 44
-99z m1187 79 c6 -15 24 -60 41 -100 l31 -74 99 0 c54 0 99 -4 99 -9 0 -5 -31
-38 -69 -74 l-69 -65 16 -95 c9 -53 13 -99 9 -103 -4 -4 -24 6 -45 22 -20 17
-58 44 -83 62 l-46 31 -88 -60 c-48 -33 -90 -57 -92 -55 -3 3 3 48 12 101 l18
97 -67 67 c-36 36 -66 70 -66 74 0 4 42 7 94 7 l93 0 30 63 c17 34 36 79 44
100 15 44 26 47 39 11z m1253 -74 l39 -100 99 0 c54 0 99 -4 99 -9 0 -5 -30
-38 -67 -74 l-67 -65 13 -83 c6 -46 14 -92 17 -101 8 -28 -5 -22 -95 41 l-84
59 -89 -60 c-49 -33 -92 -58 -94 -55 -3 2 3 48 13 101 l17 97 -67 67 c-37 37
-67 71 -67 75 0 4 43 7 96 7 l95 0 38 83 c21 45 41 90 44 100 4 9 10 17 14 17
4 0 25 -45 46 -100z m-5494 -489 c56 -145 41 -132 145 -131 50 1 95 1 101 1 5
-1 -23 -34 -63 -74 l-72 -72 15 -85 c8 -47 15 -91 15 -99 0 -19 -18 -10 -100
49 -41 30 -77 50 -85 46 -8 -3 -49 -28 -91 -57 -41 -28 -78 -48 -82 -45 -3 4
3 50 13 103 l18 97 -74 68 c-41 37 -69 68 -64 69 6 0 50 2 99 2 67 2 91 6 97
17 5 8 27 54 49 103 21 48 41 87 44 87 2 0 18 -35 35 -79z m1239 -23 l39 -103
99 -2 c55 -1 101 -2 104 -3 2 0 -28 -33 -68 -73 l-73 -73 16 -88 c8 -49 15
-93 15 -98 0 -15 -21 -4 -99 51 -39 28 -75 51 -79 51 -5 0 -46 -25 -92 -55
-46 -30 -85 -55 -87 -55 -7 0 -2 53 13 123 l15 76 -70 67 c-39 37 -69 69 -67
72 3 2 46 5 97 5 l93 2 46 102 c25 56 48 103 51 103 4 0 25 -46 47 -102z
m1207 -1 l40 -102 90 -2 c50 -1 96 -2 103 -2 8 -1 -19 -32 -59 -69 l-73 -69
16 -99 c8 -54 14 -101 12 -103 -2 -3 -41 21 -87 52 -45 31 -86 57 -90 57 -4 0
-45 -25 -92 -57 -47 -31 -87 -54 -90 -51 -3 2 4 48 14 101 l18 96 -68 67 c-38
37 -66 70 -64 72 3 3 42 4 87 3 46 -1 88 2 93 6 10 8 23 34 73 146 14 31 28
57 31 57 3 0 24 -46 46 -103z m1211 0 l41 -102 92 -1 c51 -1 95 -5 99 -9 4 -3
-24 -35 -62 -70 l-69 -65 16 -97 c9 -53 14 -99 12 -101 -3 -3 -38 18 -79 47
-41 28 -81 54 -90 57 -9 3 -47 -16 -96 -50 -44 -31 -85 -56 -90 -56 -6 0 -8
10 -5 23 3 12 12 56 20 97 l14 75 -72 73 c-39 39 -65 72 -57 73 8 0 53 1 99 2
l84 2 46 103 c25 56 48 102 51 102 3 0 24 -46 46 -103z m1229 0 l40 -102 95
-2 c52 -1 100 -2 105 -2 6 -1 -24 -32 -64 -70 l-75 -68 13 -84 c6 -46 14 -92
17 -101 9 -29 -11 -21 -92 37 -42 30 -81 55 -86 55 -6 0 -48 -25 -94 -57 -46
-31 -86 -54 -89 -51 -3 3 4 47 14 99 l20 94 -72 73 c-39 39 -69 72 -67 72 3 1
47 2 98 3 l93 2 46 103 c25 56 48 102 52 102 3 0 24 -46 46 -103z m1220 -5
l37 -99 95 -1 c52 0 97 -2 99 -5 3 -2 -26 -34 -63 -70 l-67 -65 12 -86 c7 -47
15 -93 18 -101 10 -26 -12 -17 -94 40 -44 30 -84 55 -88 55 -4 0 -45 -25 -92
-56 -46 -31 -86 -53 -89 -51 -3 3 2 41 11 85 9 43 16 88 16 98 0 11 -29 49
-65 84 -36 35 -65 67 -65 70 0 3 42 4 94 4 l94 -2 27 59 c14 33 35 80 46 104
11 25 24 43 28 40 5 -2 25 -49 46 -103z m-5485 -502 c17 -47 37 -91 43 -98 8
-10 36 -12 104 -10 51 2 93 -1 93 -6 0 -5 -31 -39 -69 -75 l-69 -66 18 -97 c9
-54 15 -99 13 -102 -3 -2 -42 22 -88 55 -45 32 -85 59 -89 59 -4 0 -48 -28
-98 -61 -90 -61 -91 -61 -86 -33 3 16 11 65 18 109 l13 79 -66 61 c-37 34 -67
64 -67 68 0 4 43 7 95 7 94 0 96 0 106 27 28 74 83 183 89 176 4 -5 22 -46 40
-93z m1217 -2 l41 -103 103 -3 103 -3 -73 -73 -73 -73 16 -85 c22 -115 21
-124 -3 -107 -11 8 -51 36 -90 63 l-71 50 -85 -58 c-47 -32 -89 -56 -93 -54
-5 1 0 45 10 97 l20 94 -73 73 -73 73 99 3 99 3 46 102 c25 56 48 103 51 103
3 0 24 -46 46 -102z m1202 23 c56 -145 40 -131 153 -131 54 0 98 -2 98 -5 0
-2 -32 -35 -70 -72 l-70 -68 15 -85 c23 -131 26 -128 -62 -65 -43 31 -84 58
-91 62 -7 3 -53 -22 -102 -56 -102 -70 -99 -72 -73 59 l16 88 -74 71 -74 70
40 1 c161 4 158 4 172 30 7 14 29 60 48 103 18 42 36 77 39 77 2 0 18 -35 35
-79z m1236 -29 l41 -97 97 -3 c53 -1 97 -6 97 -10 0 -5 -29 -34 -65 -67 -73
-65 -72 -64 -51 -185 8 -41 12 -78 9 -82 -2 -4 -42 20 -88 53 -47 34 -91 59
-98 56 -6 -3 -48 -30 -92 -61 -44 -30 -81 -52 -83 -47 -1 4 6 51 16 104 l19
97 -69 64 c-37 36 -68 67 -68 70 0 3 43 7 96 8 l95 3 35 80 c20 44 40 91 45
104 5 13 13 21 16 17 4 -4 26 -51 48 -104z m1215 8 c18 -47 37 -90 41 -96 6
-7 48 -12 101 -13 51 -1 95 -4 97 -7 3 -3 -26 -33 -64 -68 l-69 -63 12 -86 c7
-48 15 -94 18 -102 11 -27 -17 -16 -96 40 -43 30 -81 55 -84 55 -4 0 -48 -28
-98 -61 -90 -61 -91 -61 -85 -33 3 16 11 64 18 107 l13 78 -67 65 c-37 36 -67
68 -67 70 0 2 43 4 95 4 l95 0 13 33 c44 103 81 177 87 170 4 -5 22 -46 40
-93z m-5480 -521 l36 -94 102 -3 c56 -1 102 -6 102 -10 0 -3 -31 -36 -70 -73
l-70 -67 17 -96 c9 -53 13 -99 10 -102 -3 -3 -38 19 -79 48 -40 30 -78 57 -84
61 -6 3 -51 -21 -99 -54 -48 -33 -90 -57 -93 -54 -3 3 3 48 13 101 l19 95 -74
74 -74 75 101 0 101 0 43 100 c24 55 48 98 53 97 5 -2 26 -46 46 -98z m1227 1
l38 -100 103 0 c56 0 102 -3 102 -6 0 -3 -32 -36 -71 -73 l-72 -66 18 -98 c10
-54 15 -100 12 -103 -3 -3 -43 22 -90 55 l-86 61 -88 -59 c-103 -68 -104 -67
-78 61 l17 82 -71 69 c-39 38 -71 71 -71 73 0 2 44 4 99 4 l98 0 20 48 c47
111 67 152 74 152 4 0 25 -45 46 -100z m1207 0 l39 -100 98 0 c55 0 99 -3 99
-7 0 -4 -30 -38 -67 -75 l-66 -67 16 -97 c9 -54 14 -100 12 -102 -2 -2 -43 24
-90 58 l-87 61 -91 -61 c-49 -33 -92 -59 -94 -57 -2 2 5 49 16 103 l20 99 -70
65 c-38 36 -69 68 -69 73 0 4 43 7 96 7 l95 0 36 78 c19 42 39 87 44 100 5 12
12 22 16 22 5 0 26 -45 47 -100z m1212 0 l39 -100 98 0 c53 0 97 -3 97 -7 0
-4 -30 -38 -66 -74 l-67 -67 17 -98 c9 -53 14 -99 12 -101 -2 -2 -43 23 -90
57 l-86 61 -91 -61 c-50 -34 -93 -60 -95 -57 -2 2 5 48 16 102 l20 98 -72 71
-72 71 102 3 c56 1 102 7 102 12 0 16 82 190 90 190 4 0 24 -45 46 -100z
m1228 0 l39 -100 98 0 c55 0 99 -3 99 -7 0 -4 -30 -38 -67 -75 l-66 -67 16
-97 c9 -54 14 -100 12 -102 -2 -3 -43 23 -91 57 l-86 62 -90 -61 c-50 -34 -92
-59 -95 -56 -3 2 4 48 15 102 l20 98 -69 64 c-38 35 -69 68 -69 73 0 5 43 9
96 9 l95 0 25 58 c43 98 66 142 72 142 4 0 25 -45 46 -100z m1201 43 c10 -26
27 -69 38 -95 l19 -48 99 0 c55 0 99 -4 99 -8 0 -5 -31 -38 -68 -74 l-69 -65
16 -96 c13 -88 11 -127 -7 -101 -6 8 -118 89 -148 107 -6 4 -51 -21 -99 -54
-48 -33 -90 -57 -93 -54 -3 2 3 42 12 87 9 46 16 90 16 99 0 10 -29 45 -65 80
-36 34 -65 66 -65 71 0 4 43 8 96 8 l95 0 16 38 c43 105 73 163 81 158 5 -3
17 -27 27 -53z m-5459 -585 l37 -98 105 0 105 0 -75 -70 -75 -69 17 -101 c10
-57 13 -100 7 -100 -5 0 -44 25 -88 55 -90 64 -75 65 -196 -17 -40 -27 -73
-45 -73 -41 0 4 7 52 17 107 l17 98 -67 64 c-37 35 -67 66 -67 69 0 3 42 5 93
5 l93 0 27 58 c14 31 35 79 47 106 12 29 24 45 29 40 5 -5 26 -53 47 -106z
m1211 2 l38 -95 105 -3 105 -3 -74 -68 -74 -68 12 -84 c7 -46 14 -92 17 -101
9 -29 -12 -21 -87 33 -39 28 -77 53 -85 56 -7 2 -50 -20 -94 -51 -79 -55 -100
-64 -100 -48 0 4 9 48 20 98 l19 89 -72 73 c-39 39 -65 72 -57 73 8 0 52 1 98
2 l83 2 47 102 c25 57 50 99 54 95 4 -4 24 -50 45 -102z m1218 1 l38 -101 106
0 106 0 -72 -66 c-82 -74 -81 -71 -59 -194 8 -41 12 -78 9 -82 -2 -4 -41 19
-86 52 -44 33 -86 60 -92 60 -5 -1 -48 -27 -95 -60 -47 -33 -86 -56 -87 -52
-2 4 5 50 16 102 l18 95 -71 73 -70 72 95 0 96 0 37 81 c21 44 41 92 47 106 5
13 13 22 17 19 5 -3 26 -50 47 -105z m1215 9 c18 -47 38 -91 43 -97 6 -9 40
-13 103 -13 52 0 94 -2 94 -4 0 -2 -31 -35 -69 -72 l-69 -69 17 -98 c10 -53
16 -99 14 -101 -3 -2 -39 21 -81 51 -42 30 -82 57 -89 60 -6 2 -50 -21 -97
-53 -48 -31 -89 -54 -92 -52 -2 3 3 49 13 103 l17 98 -74 69 -73 68 100 0 100
0 27 60 c15 33 36 81 48 106 11 26 23 42 27 38 5 -5 23 -47 41 -94z m1225 -3
l40 -102 98 -3 c53 -1 97 -6 97 -10 0 -4 -30 -34 -66 -68 l-67 -61 12 -79 c7
-43 15 -89 18 -101 7 -33 -9 -29 -69 16 -28 22 -66 48 -83 57 l-32 17 -80 -57
c-89 -62 -106 -68 -98 -33 3 12 12 56 19 97 l14 75 -71 72 -71 72 99 3 99 3
45 103 c24 56 47 102 50 102 3 0 24 -46 46 -103z m-5487 -512 l40 -100 101 -3
c56 -1 101 -4 101 -6 0 -2 -32 -35 -70 -72 l-71 -69 16 -85 c23 -132 27 -129
-74 -59 l-88 61 -92 -61 c-103 -70 -100 -72 -74 57 l16 83 -66 67 c-37 37 -67
71 -67 75 0 4 42 7 94 7 86 0 95 2 101 20 10 33 86 192 90 188 2 -2 21 -48 43
-103z m1221 19 c49 -134 36 -124 154 -124 l101 0 -73 -74 -73 -74 17 -96 c10
-53 15 -99 13 -101 -3 -3 -38 19 -79 48 -41 29 -80 56 -87 61 -7 4 -44 -14
-95 -47 -45 -29 -87 -57 -93 -60 -8 -5 -8 14 2 66 8 39 17 86 20 102 5 27 -2
37 -65 99 -39 37 -71 70 -71 72 0 2 43 5 96 6 74 2 99 7 105 18 5 8 26 54 48
103 22 48 42 87 44 87 3 0 19 -39 36 -86z m1216 -17 l40 -102 104 -3 105 -3
-74 -74 -73 -74 15 -93 c9 -51 14 -96 12 -100 -3 -4 -43 20 -90 54 l-85 60
-91 -60 c-51 -34 -93 -60 -95 -58 -1 1 6 47 17 102 l19 99 -70 69 c-38 37 -69
70 -69 72 0 2 44 5 97 6 l97 3 46 103 c25 56 47 102 50 102 3 0 23 -47 45
-103z m1210 0 l41 -102 97 -3 c53 -1 97 -6 97 -10 0 -3 -30 -37 -66 -73 l-66
-67 16 -97 c9 -54 15 -99 13 -101 -2 -3 -38 20 -79 49 -41 30 -80 57 -87 61
-7 5 -48 -17 -101 -53 -49 -33 -91 -57 -93 -53 -3 4 4 50 14 102 l20 95 -71
69 c-38 37 -70 70 -70 72 0 2 44 5 98 6 l97 3 45 102 c25 57 47 103 50 103 3
0 23 -46 45 -103z m1230 -6 l39 -101 98 0 c54 0 98 -4 98 -8 0 -4 -29 -36 -65
-71 -36 -35 -65 -71 -65 -80 0 -9 7 -54 14 -101 8 -47 13 -86 12 -87 -1 -2
-42 24 -90 58 l-88 60 -92 -60 c-50 -34 -92 -57 -94 -53 -1 4 7 51 18 102 l20
95 -70 66 c-39 36 -70 69 -70 72 0 4 43 7 96 7 l95 0 21 48 c57 133 71 161 77
158 4 -3 24 -50 46 -105z m1220 -3 l38 -98 98 0 c55 0 99 -4 99 -9 0 -4 -30
-36 -67 -70 l-67 -62 12 -82 c20 -139 24 -135 -73 -66 l-86 61 -92 -61 c-51
-33 -93 -56 -95 -51 -2 5 4 44 12 86 24 113 24 114 -49 179 -36 33 -65 63 -65
67 0 4 42 8 94 8 l94 0 24 53 c14 28 36 76 48 105 13 29 26 49 30 45 4 -4 24
-52 45 -105z"/>
<path d="M0 3420 l0 -380 9005 0 9005 0 0 380 0 380 -9005 0 -9005 0 0 -380z"/>
<path d="M0 1900 l0 -380 9005 0 9005 0 0 380 0 380 -9005 0 -9005 0 0 -380z"/>
<path d="M0 380 l0 -380 9005 0 9005 0 0 380 0 380 -9005 0 -9005 0 0 -380z"/>
</g>
</svg>
