<svg width="704" height="89" viewBox="0 0 704 89" fill="none" xmlns="http://www.w3.org/2000/svg">
<g filter="url(#filter0_i_407_25)">
<path d="M44.5438 41.0496L21.1314 31.585C16.5909 29.7495 13.7694 25.177 14.1652 20.2955C14.6368 14.4796 19.4943 10 25.3293 10H28.5V0H22C9.8497 0 0 9.84974 0 22L0.0638199 23.9146C0.32716 31.8147 5.38231 38.7551 12.8207 41.429L35.6583 49.6386C47.4532 53.8786 46.2681 70.9323 34 73.5H28.8523C21.5282 73.5 15.4645 67.8093 15 60.5H0C2.51044 70.228 9.5613 78.1465 18.9341 81.764L20.171 82.2415C28.004 85.2647 36.7621 84.7506 44.1875 80.8316L45.4771 80.151C48.7766 78.4096 51.6055 75.8953 53.7221 72.8229L53.974 72.4573C55.6395 70.0397 56.7801 67.3 57.3221 64.4148C59.1704 54.5771 53.8239 44.8012 44.5438 41.0496Z" fill="#F5F6FA"/>
<path d="M53.5 8H40V21H53.5V8Z" fill="#F5F6FA"/>
<path d="M72 14.5V0.5H86V14.5H72Z" fill="#F5F6FA"/>
<path d="M86 24H72V82.5H86V24Z" fill="#F5F6FA"/>
<path d="M116 69.5H103V82.5H116V69.5Z" fill="#F5F6FA"/>
<path d="M116 59H103V2H119L147 66.5L174.5 2H191V82.5H177.5V23H176.5L153 82H141L117 23H116V59Z" fill="#F5F6FA"/>
<path d="M216 69.5H202V82.5H216V69.5Z" fill="#F5F6FA"/>
<path d="M239 19L228.5 45.5H215.5L232.5 2H246L277 82.5H263L239 19Z" fill="#F5F6FA"/>
<path d="M365.388 2.32603L364.724 15.6175L360.154 14.4327C340.297 9.28471 321.213 25.0521 322.523 45.5232C321.811 76.7768 363.134 88.5272 378.973 61.575L380.009 59.8116H394.629C378.533 101.071 318.278 94.7262 311.128 51.0195L310.229 45.5232C309.156 21.0277 329.265 0.855911 353.764 1.85295L365.388 2.32603Z" fill="#F5F6FA"/>
<path d="M375.024 58.8147C369.034 68.283 357.195 72.2092 346.735 68.1968L344.704 67.4182C341.902 66.3433 339.315 64.774 337.068 62.7851C318.66 46.4981 332.238 16.2015 356.645 19.1023L358.078 19.2726L375.024 58.8147ZM380.009 59.8116H394.629C378.533 101.071 318.278 94.7262 311.128 51.0195L310.229 45.5232C309.156 21.0277 329.265 0.855911 353.764 1.85295L365.388 2.32603L364.724 15.6175L360.154 14.4327C340.297 9.28471 321.213 25.0521 322.523 45.5232C321.811 76.7768 363.134 88.5272 378.973 61.575L380.009 59.8116Z" stroke="#F5F6FA"/>
<path d="M370.705 27.2476L356.084 63.1345L352.429 44.8588L334.818 41.8682L370.705 27.2476Z" fill="#B61917"/>
<path d="M387.984 11.2977H374.028V25.2538H387.984V11.2977Z" fill="#B61917"/>
<path d="M370.705 27.2476L356.084 63.1345L352.429 44.8588L370.705 27.2476Z" fill="#E51B25"/>
<path d="M600 1.5L599.5 14C580.681 8.3788 561.764 22.8734 562.5 42.5L563.359 49.2172C566.905 76.9512 604.977 81.9038 615.5 56H629.5L624.596 64.827C621.258 70.8348 616.388 75.8505 610.48 79.363C594.29 88.9898 573.527 85.6253 561.205 71.3782L559.579 69.4982C553.692 62.691 550.222 54.128 549.708 45.1428C549.57 42.7191 549.648 40.2879 549.942 37.8781L550.459 33.6343C551.458 25.4479 555.168 17.8316 561 12C569.412 5.2059 579.898 1.5 590.711 1.5H600Z" fill="#F5F6FA"/>
<path d="M626 16H612.5V29.5H626V16Z" fill="#F5F6FA"/>
<path d="M653.5 1.5H640.5V30.5L687.5 83.5H703.5L666.5 42L703.5 1.5H688L659 33.5L654 28L653.5 1.5Z" fill="#F5F6FA"/>
<path d="M654 70H640.5V83.5H654V70Z" fill="#F5F6FA"/>
<path d="M420 84V2V1H407V84H420Z" fill="#F5F6FA"/>
<path d="M541 12V1H493.5V83.5H541V73H507V12H541Z" fill="#F5F6FA"/>
<path d="M519 49.5V36H532.5V49.5H519Z" fill="#F5F6FA"/>
<path d="M474 1V83.5H460V1H474Z" fill="#F5F6FA"/>
<path d="M447 49V36H434V49H447Z" fill="#F5F6FA"/>
</g>
<defs>
<filter id="filter0_i_407_25" x="0" y="0" width="703.5" height="92.0299" filterUnits="userSpaceOnUse" color-interpolation-filters="sRGB">
<feFlood flood-opacity="0" result="BackgroundImageFix"/>
<feBlend mode="normal" in="SourceGraphic" in2="BackgroundImageFix" result="shape"/>
<feColorMatrix in="SourceAlpha" type="matrix" values="0 0 0 0 0 0 0 0 0 0 0 0 0 0 0 0 0 0 127 0" result="hardAlpha"/>
<feOffset dy="4"/>
<feGaussianBlur stdDeviation="2"/>
<feComposite in2="hardAlpha" operator="arithmetic" k2="-1" k3="1"/>
<feColorMatrix type="matrix" values="0 0 0 0 0 0 0 0 0 0 0 0 0 0 0 0 0 0 0.25 0"/>
<feBlend mode="normal" in2="shape" result="effect1_innerShadow_407_25"/>
</filter>
</defs>
</svg>
